<?xml version="1.0" encoding="UTF-8" standalone="no"?>
<svg
   xmlns:dc="http://purl.org/dc/elements/1.1/"
   xmlns:cc="http://creativecommons.org/ns#"
   xmlns:rdf="http://www.w3.org/1999/02/22-rdf-syntax-ns#"
   xmlns:svg="http://www.w3.org/2000/svg"
   xmlns="http://www.w3.org/2000/svg"
   xmlns:sodipodi="http://sodipodi.sourceforge.net/DTD/sodipodi-0.dtd"
   xmlns:inkscape="http://www.inkscape.org/namespaces/inkscape"
   version="1.0"
   width="242pt"
   height="103.5pt"
   viewBox="0 0 242 103.5"
   preserveAspectRatio="xMidYMid meet"
   id="svg2"
   inkscape:version="0.91 r13725"
   sodipodi:docname="VK 1602 Leopard.svg">
  <defs
     id="defs74" />
  <sodipodi:namedview
     pagecolor="#ffffff"
     bordercolor="#666666"
     borderopacity="1"
     objecttolerance="10"
     gridtolerance="10"
     guidetolerance="10"
     inkscape:pageopacity="0"
     inkscape:pageshadow="2"
     inkscape:window-width="1366"
     inkscape:window-height="705"
     id="namedview72"
     showgrid="false"
     fit-margin-top="0"
     fit-margin-left="0"
     fit-margin-right="0"
     fit-margin-bottom="0"
     inkscape:zoom="1.1162859"
     inkscape:cx="262.50617"
     inkscape:cy="89.124133"
     inkscape:window-x="-8"
     inkscape:window-y="-8"
     inkscape:window-maximized="1"
     inkscape:current-layer="svg2" />
  <metadata
     id="metadata4">
Created by potrace 1.10, written by Peter Selinger 2001-2011
<rdf:RDF>
  <cc:Work
     rdf:about="">
    <dc:format>image/svg+xml</dc:format>
    <dc:type
       rdf:resource="http://purl.org/dc/dcmitype/StillImage" />
    <dc:title />
  </cc:Work>
</rdf:RDF>
</metadata>
  <g
     transform="matrix(0.1,0,0,-0.1,-25,111.5)"
     id="g6"
     style="fill:#000000;stroke:none">
    <path
       d="m 1806,1059 -7,-51 -82,6 c -45,3 -92,6 -104,6 -14,0 -23,6 -23,15 0,9 -9,15 -25,15 -16,0 -25,-6 -25,-15 0,-8 -4,-15 -10,-15 -5,0 -10,7 -10,15 0,8 -7,15 -15,15 -8,0 -15,7 -15,15 0,9 -9,15 -25,15 -21,0 -25,-5 -25,-30 0,-37 -23,-49 -49,-26 -22,20 -35,20 -51,1 -7,-8 -25,-15 -39,-15 -15,0 -36,-7 -47,-15 -25,-19 -34,-19 -34,1 0,22 -42,11 -95,-24 -25,-17 -59,-29 -90,-32 -48,-5 -50,-6 -53,-39 l -3,-33 -305,3 c -234,3 -304,7 -304,17 0,9 60,12 263,13 144,1 269,1 278,0 8,-1 26,3 40,9 19,8 9,9 -46,5 -38,-3 -177,-5 -307,-5 -231,0 -238,-1 -238,-20 0,-25 -23,-26 -46,-3 -13,13 -19,14 -22,5 -5,-17 -29,-15 -29,3 0,20 41,20 57,0 11,-13 15,-13 21,-3 15,23 10,25 -41,27 l -50,1 0,-36 0,-36 58,8 c 85,12 665,4 674,-9 4,-6 8,9 10,33 l 3,45 50,3 c 32,2 57,10 70,22 22,20 95,54 95,44 0,-3 -12,-44 -26,-91 -22,-69 -30,-83 -43,-77 -24,11 -141,21 -141,12 0,-5 -27,-8 -60,-8 -36,0 -60,-4 -60,-11 0,-5 5,-7 10,-4 6,3 10,1 10,-4 0,-6 -6,-11 -13,-11 -14,0 -131,-82 -142,-99 -3,-6 -1,-11 4,-11 6,0 11,-5 11,-11 0,-8 -5,-8 -15,1 -10,9 -15,9 -15,1 0,-6 -7,-11 -15,-11 -8,0 -15,5 -15,10 0,6 -6,7 -17,1 -10,-5 -44,-16 -75,-25 -32,-9 -71,-28 -88,-42 -26,-22 -30,-33 -30,-74 0,-27 5,-52 10,-55 15,-9 13,-38 -2,-29 -7,4 -6,-1 3,-12 9,-10 19,-27 22,-37 4,-9 12,-17 18,-17 8,0 8,4 -1,15 -10,12 -10,15 1,15 10,0 11,2 2,8 -6,4 -15,20 -19,36 -4,19 -3,27 3,23 12,-8 26,20 17,34 -3,5 1,9 10,9 14,0 16,-23 3,-36 -10,-11 -8,-24 4,-24 5,0 7,5 4,10 -3,6 -1,10 4,10 6,0 11,-7 11,-15 0,-8 5,-15 12,-15 6,0 8,-3 4,-7 -4,-5 -13,-8 -19,-8 -7,0 -13,-17 -15,-38 -3,-31 0,-39 16,-44 13,-3 19,-13 18,-29 -1,-27 -32,-42 -50,-24 -8,8 -7,10 5,5 10,-4 20,-2 24,4 5,10 -3,10 -44,2 -2,-1 4,-13 14,-27 9,-15 11,-23 4,-19 -8,6 -10,4 -5,-4 5,-7 14,-10 22,-7 8,3 20,-3 26,-14 7,-11 16,-20 21,-20 4,0 5,4 2,10 -3,5 0,7 8,4 8,-3 18,-1 22,5 3,6 2,11 -4,11 -6,0 -8,7 -5,15 4,8 13,15 20,15 8,0 17,7 20,15 6,14 8,13 20,-2 13,-16 14,-16 8,8 -4,20 1,33 22,54 18,18 25,21 20,9 -4,-10 -1,-21 6,-25 10,-6 10,-11 1,-20 -6,-6 -9,-18 -6,-25 3,-8 1,-14 -3,-15 -5,0 -18,-3 -29,-5 -11,-3 -30,-5 -42,-6 -13,0 -23,-5 -23,-11 0,-6 16,-7 40,-3 32,5 40,3 40,-9 0,-11 -9,-14 -39,-10 -22,3 -43,1 -46,-5 -3,-5 -1,-10 4,-10 6,0 11,-7 11,-15 0,-19 10,-19 40,2 22,16 23,16 17,0 -4,-10 -1,-17 6,-17 8,0 6,-4 -3,-10 -13,-8 -13,-10 -1,-10 8,0 27,12 42,26 26,25 27,25 22,5 -3,-11 -9,-21 -15,-21 -5,0 -4,-9 2,-21 11,-20 12,-20 31,-3 19,17 23,14 20,-18 -2,-20 24,-24 35,-6 4,7 -1,17 -14,26 -12,8 -18,20 -15,29 5,12 7,12 14,2 4,-8 11,-11 14,-7 4,3 -1,18 -11,33 -10,16 -18,49 -19,83 -1,31 -3,66 -4,77 -2,20 -2,20 -10,0 -5,-12 -4,-23 3,-27 7,-5 5,-8 -6,-8 -9,0 -19,-6 -21,-12 -4,-10 -8,-9 -16,2 -16,22 -13,38 7,36 14,-1 17,7 15,42 -1,23 3,42 8,42 6,0 8,-4 5,-9 -3,-5 6,-8 21,-8 24,0 24,1 7,10 -30,17 -45,35 -35,42 6,3 8,12 4,20 -3,8 0,15 6,15 10,0 16,-21 12,-43 -1,-4 8,-3 19,3 11,6 20,15 20,20 0,18 18,10 23,-10 7,-28 25,-25 39,5 8,19 14,22 20,13 11,-19 10,-28 -6,-28 -15,0 -106,-77 -106,-91 0,-17 17,-9 29,14 6,12 28,33 47,46 34,23 36,24 52,6 16,-17 16,-17 -1,-11 -26,8 -63,-12 -48,-27 8,-8 14,-8 23,1 7,7 20,12 30,12 19,0 24,20 8,36 -6,6 -1,10 16,12 22,2 24,-1 19,-21 -5,-20 -5,-20 10,3 8,14 15,18 14,10 -3,-31 2,-38 26,-42 13,-3 22,-1 19,4 -6,9 24,24 32,15 3,-3 -6,-23 -21,-45 -18,-27 -27,-57 -30,-93 -2,-29 -8,-55 -15,-57 -7,-3 -9,6 -6,24 4,21 2,24 -6,16 -19,-19 -36,-14 -54,14 -14,20 -15,27 -4,37 10,10 12,8 7,-5 -3,-10 -2,-20 3,-23 6,-4 10,-2 10,3 0,5 7,9 15,9 8,0 15,-5 15,-10 0,-18 14,3 15,23 4,46 -77,32 -95,-16 -24,-61 41,-116 100,-84 15,8 20,4 31,-23 8,-17 12,-36 11,-42 -2,-5 -1,-7 3,-3 4,3 27,-9 52,-28 31,-24 55,-34 79,-34 27,0 34,-4 32,-16 -2,-10 3,-19 11,-22 9,-3 11,1 6,17 -5,17 -2,21 15,21 12,0 31,5 42,11 15,8 19,8 16,-1 -2,-6 -7,-11 -11,-11 -4,1 -14,-4 -21,-11 -10,-10 -11,-15 -2,-20 17,-12 24,-9 30,10 6,19 36,27 36,10 0,-5 5,-6 12,-2 7,4 8,3 4,-4 -4,-6 -14,-9 -24,-6 -14,5 -15,4 -2,-5 22,-16 30,-14 39,12 8,21 20,24 85,18 4,-1 5,-8 2,-17 -3,-8 -2,-13 3,-9 5,3 11,2 14,-2 2,-5 2,-2 0,5 -2,8 6,16 16,19 13,3 18,11 14,21 -4,14 -3,14 5,3 6,-8 17,-11 27,-7 11,4 15,2 13,-6 -3,-7 -9,-13 -14,-14 -5,0 -18,-4 -28,-9 -18,-8 -18,-9 4,-17 26,-10 37,0 47,45 3,15 7,27 9,27 2,0 18,-9 36,-20 18,-11 48,-20 66,-20 25,0 32,-4 30,-16 -4,-22 18,-29 26,-9 3,9 2,13 -4,10 -6,-3 -10,-1 -10,4 0,6 11,11 24,11 14,0 28,5 31,10 8,13 28,13 23,-1 -2,-6 -6,-9 -8,-7 -3,2 -13,-4 -22,-12 -14,-13 -14,-16 -1,-24 17,-9 29,4 40,44 6,25 41,57 56,52 5,-1 6,2 3,7 -3,5 1,22 9,39 23,45 21,121 -3,169 -12,23 -26,43 -32,45 -6,2 -7,14 -1,35 7,23 5,37 -4,50 -13,17 -14,17 -29,-2 -15,-20 -15,-20 -30,0 -13,17 -17,18 -25,5 -6,-8 -9,-16 -7,-18 5,-5 50,-14 69,-14 10,1 17,-7 17,-19 0,-24 -16,-25 -29,-1 -5,9 -12,16 -15,14 -4,-2 -22,0 -41,4 -24,4 -34,11 -33,22 4,21 -18,27 -26,7 -3,-9 -2,-13 4,-10 6,3 10,2 10,-2 0,-9 -92,-34 -99,-27 -7,7 4,13 29,17 27,4 37,21 20,32 -6,4 -18,-1 -25,-11 -13,-18 -14,-18 -29,1 -15,20 -15,20 -30,0 -14,-20 -15,-20 -29,-1 -14,19 -14,19 -35,-2 -23,-23 -29,-38 -12,-27 6,3 7,-1 3,-10 -5,-13 -7,-14 -14,-3 -5,7 -6,20 -3,30 7,24 -15,33 -31,12 -13,-18 -14,-18 -29,1 -15,20 -15,20 -30,0 -15,-20 -15,-20 -30,0 -15,20 -15,20 -30,0 -15,-20 -15,-20 -30,0 -13,17 -17,18 -25,5 -6,-8 -8,-16 -6,-18 4,-5 35,-10 63,-11 15,-1 22,-7 22,-21 0,-25 -16,-26 -29,-3 -5,10 -13,17 -18,16 -4,-2 -23,0 -41,3 -22,4 -31,11 -30,22 2,8 -3,17 -11,20 -10,3 -13,-1 -9,-14 4,-15 -5,-22 -44,-35 -47,-15 -49,-15 -45,2 3,10 -1,26 -8,36 -13,17 -14,17 -29,-2 -15,-20 -15,-20 -30,0 -13,17 -17,18 -25,5 -10,-15 5,-33 20,-24 4,2 11,-1 14,-7 5,-7 -7,-9 -41,-4 -90,11 -89,11 -86,34 5,30 -24,27 -41,-5 -11,-22 -15,-24 -20,-10 -4,9 -1,16 5,16 7,0 6,5 -2,15 -14,17 -30,20 -30,4 0,-5 5,-7 12,-3 7,4 8,3 4,-5 -4,-6 -12,-9 -17,-6 -5,4 -12,-1 -15,-9 -3,-9 -10,-16 -15,-16 -11,0 -7,23 6,32 6,4 1,8 -10,8 -17,0 -17,2 -5,10 13,8 13,10 -1,10 -24,0 -47,-40 -44,-78 2,-24 -1,-32 -14,-32 -9,0 -23,-6 -31,-12 -12,-11 -12,-9 0,7 30,40 40,64 30,70 -6,3 -10,-1 -10,-10 0,-14 -3,-14 -32,1 -30,15 -32,15 -46,-2 -10,-13 -16,-15 -19,-6 -3,6 -13,12 -24,12 -10,0 -19,5 -19,10 0,6 -5,10 -11,10 -8,0 -8,-5 1,-15 9,-10 9,-15 1,-15 -6,0 -11,5 -11,11 0,5 -5,7 -11,3 -8,-5 -8,-9 1,-14 8,-5 8,-10 2,-14 -20,-12 -20,23 -1,46 20,22 21,22 34,5 8,-12 15,-14 20,-8 3,6 1,11 -4,11 -6,0 -11,4 -11,10 0,5 3,9 8,7 4,-1 28,18 52,42 42,40 43,42 13,27 -17,-9 -35,-20 -38,-26 -3,-5 -12,-10 -18,-10 -7,1 -1,10 12,21 13,11 22,22 19,25 -3,2 -20,-10 -39,-27 -19,-18 -44,-38 -56,-46 -13,-9 -20,-20 -16,-26 3,-5 2,-7 -3,-4 -5,3 -21,-4 -34,-15 -19,-15 -20,-18 -6,-14 16,6 17,4 6,-9 -19,-23 -26,-18 -28,19 -2,29 3,39 33,63 19,15 49,33 67,40 25,8 28,12 13,13 -14,2 -11,5 10,10 17,4 107,8 200,10 105,1 162,5 150,10 -16,7 -17,9 -3,9 9,1 20,-3 23,-9 3,-5 11,-10 16,-10 6,0 8,4 5,8 -3,5 1,9 9,9 20,0 19,-14 -2,-26 -13,-7 147,-10 511,-11 l 528,0 47,-25 c 37,-20 72,-27 178,-37 l 132,-13 -30,-49 c -17,-26 -28,-51 -24,-54 3,-4 10,0 15,7 4,8 15,11 25,7 9,-3 25,-1 35,4 27,14 77,92 73,111 -2,9 19,53 47,98 46,71 56,81 81,81 22,0 29,5 29,20 0,17 -7,20 -39,20 -22,0 -43,-5 -46,-10 -11,-18 -25,0 -25,34 0,23 -7,38 -20,47 -18,12 -22,30 -29,124 l -9,110 1,-99 c 1,-88 -1,-101 -21,-123 -12,-14 -22,-29 -22,-35 0,-6 -8,-1 -17,10 -26,30 -81,33 -107,6 -18,-17 -22,-54 -6,-54 5,0 7,6 4,14 -5,13 20,46 36,46 4,0 10,-18 12,-39 3,-31 1,-37 -9,-29 -9,7 -13,7 -13,0 0,-6 -38,-10 -100,-10 -55,-1 -98,3 -95,8 3,5 -4,14 -15,20 -13,7 -20,7 -20,0 0,-5 5,-10 10,-10 6,0 10,-4 10,-10 0,-6 -38,-10 -93,-10 l -93,0 -42,83 c -23,45 -42,90 -42,100 0,9 -6,17 -12,17 -27,0 -41,19 -45,61 -7,59 -9,59 -17,-2 z m -326,-3 c 0,-16 -18,-31 -27,-22 -8,8 5,36 17,36 5,0 10,-6 10,-14 z m 30,-26 c 0,-5 -7,-10 -15,-10 -8,0 -15,5 -15,10 0,6 7,10 15,10 8,0 15,-4 15,-10 z m 70,0 c 0,-5 -7,-10 -15,-10 -8,0 -15,5 -15,10 0,6 7,10 15,10 8,0 15,-4 15,-10 z m -186,-50 c -13,-13 -49,24 -39,40 5,9 14,6 28,-9 15,-14 18,-24 11,-31 z m 463,-12 c 7,-13 14,-32 16,-43 2,-11 8,-19 15,-18 7,2 9,-4 5,-14 -5,-12 -3,-14 7,-8 9,5 11,4 6,-4 -5,-7 3,-23 18,-38 14,-14 26,-30 26,-34 0,-5 -162,-9 -360,-9 l -361,0 16,31 c 18,34 17,39 -14,42 -11,1 -21,6 -22,12 0,5 -5,-1 -10,-14 -17,-44 -19,-16 -2,40 19,61 21,64 28,57 3,-3 1,-18 -5,-33 -9,-22 -8,-32 4,-43 13,-13 16,-12 22,12 3,15 11,25 18,23 6,-2 16,5 23,17 11,20 12,19 20,-14 12,-46 43,-52 70,-13 19,27 32,56 33,71 0,9 400,19 420,10 9,-3 21,-17 27,-30 z m -577,-3 c -6,-15 -13,-26 -16,-23 -2,3 0,18 6,33 6,15 13,26 16,23 2,-3 0,-18 -6,-33 z m 45,5 c -1,-16 2,-27 7,-24 10,6 38,-14 38,-27 0,-15 -26,-10 -42,9 -16,18 -23,72 -9,72 4,0 7,-13 6,-30 z m -65,10 c 0,-5 -5,-10 -11,-10 -5,0 -7,5 -4,10 3,6 8,10 11,10 2,0 4,-4 4,-10 z m 114,-9 c 12,-13 14,-21 6,-26 -13,-8 -52,24 -44,36 8,14 19,11 38,-10 z m -130,-38 c -7,-37 -14,-42 -14,-11 0,21 7,38 16,38 1,0 0,-12 -2,-27 z m 1180,-59 c 19,-7 22,-53 4,-55 -7,-1 3,-5 22,-9 l 35,-7 -43,-2 c -27,0 -41,3 -37,9 3,6 1,10 -4,10 -12,0 -15,43 -4,53 8,8 8,8 27,1 z m 121,-42 c 2,-29 0,-32 -24,-32 -33,0 -51,17 -51,46 0,24 23,34 54,24 12,-4 20,-17 21,-38 z M 303,863 c -7,-2 -21,-2 -30,0 -10,3 -4,5 12,5 17,0 24,-2 18,-5 z m 929,-33 c -7,-19 -93,-92 -100,-85 -3,2 9,15 24,29 16,14 24,26 17,26 -6,0 -9,9 -6,20 6,24 23,27 23,4 0,-22 24,-12 28,12 3,16 1,16 -7,4 -6,-8 -11,-10 -11,-4 0,16 10,23 25,17 9,-3 11,-12 7,-23 z m -187,-10 c -3,-5 -15,-10 -26,-10 -10,0 -19,5 -19,10 0,6 12,10 26,10 14,0 23,-4 19,-10 z m 80,0 c 16,-7 13,-9 -17,-9 -20,-1 -40,4 -43,9 -7,12 32,12 60,0 z M 940,808 c 0,-10 27,-12 110,-10 60,2 110,0 110,-4 0,-8 -15,-20 -79,-66 l -44,-31 5,26 c 4,22 0,30 -23,41 -16,8 -29,10 -29,5 0,-14 -28,-11 -33,4 -4,8 -8,9 -14,1 -4,-6 -16,-13 -25,-17 -30,-11 -21,-67 12,-80 8,-3 -25,-6 -73,-6 -52,-1 -86,3 -82,8 3,5 0,13 -6,16 -15,10 41,47 60,40 19,-8 81,42 81,66 0,10 7,19 15,19 8,0 15,-6 15,-12 z m 43,5 c -7,-2 -19,-2 -25,0 -7,3 -2,5 12,5 14,0 19,-2 13,-5 z m 1677,-22 c 0,-5 -12,-11 -27,-13 -22,-2 -38,-18 -71,-68 -24,-36 -48,-72 -53,-80 -8,-11 -11,-12 -15,-2 -3,6 -11,9 -16,6 -7,-4 -8,-2 -4,5 4,6 11,9 15,7 4,-3 20,16 36,42 57,94 74,112 106,112 16,0 29,-4 29,-9 z M 870,770 c -14,-11 -29,-20 -35,-20 -5,0 1,9 15,20 14,11 30,20 35,20 6,0 -1,-9 -15,-20 z m 1690,13 c 0,-2 -14,-24 -30,-48 -17,-24 -29,-49 -28,-56 2,-8 -20,-11 -74,-10 -45,1 -78,-2 -78,-7 0,-6 -20,-12 -45,-14 -25,-2 -45,-1 -45,2 0,3 -272,3 -603,1 l -604,-3 2,22 c 2,29 54,73 70,60 8,-7 25,1 51,24 l 39,34 673,0 c 369,0 672,-3 672,-5 z M 1025,720 c 0,-21 -5,-26 -34,-28 -49,-5 -79,5 -77,25 2,27 16,33 66,31 41,-3 45,-5 45,-28 z m 1436,-69 c -8,-5 -10,-14 -6,-21 5,-9 4,-11 -3,-6 -7,4 -16,-3 -23,-17 -10,-22 -16,-24 -72,-21 -119,6 -191,16 -212,30 -12,8 -24,12 -27,9 -3,-3 -8,0 -10,7 -4,10 12,13 68,13 41,0 74,-3 74,-7 0,-5 25,-8 55,-8 30,0 55,4 55,9 0,5 17,7 39,4 23,-3 41,-1 45,6 4,6 13,11 19,11 8,0 7,-3 -2,-9 z M 575,624 c -16,-8 -40,-25 -52,-36 -13,-12 -23,-16 -23,-10 0,14 69,62 90,62 8,0 2,-7 -15,-16 z m 1925,-46 c 0,-5 -12,-26 -26,-48 -19,-28 -34,-40 -50,-40 -29,0 -30,4 -3,41 11,16 17,34 13,40 -4,8 -3,9 4,5 11,-6 14,0 11,20 0,4 5,11 13,15 13,8 38,-14 38,-33 z M 645,590 c 4,-6 3,-9 -2,-8 -4,1 -19,-4 -33,-11 l -25,-14 19,22 c 21,23 32,26 41,11 z m 80,-82 c 28,-13 31,-21 11,-37 -20,-17 -46,-3 -46,25 0,28 1,28 35,12 z m -75,-16 c 0,-28 -20,-43 -42,-31 -19,10 -19,12 -2,30 22,24 44,25 44,1 z m 926,5 c 2,-2 -2,-12 -9,-22 -11,-15 -17,-16 -33,-6 -18,12 -18,12 4,8 12,-3 22,-1 22,4 0,5 -7,9 -15,9 -8,0 -15,4 -15,9 0,9 37,7 46,-2 z m 36,-12 c -5,-27 -16,-32 -28,-13 -4,6 1,17 11,25 24,17 23,17 17,-12 z m -482,-5 c 0,-13 -5,-18 -15,-14 -8,4 -15,12 -15,20 0,8 7,14 15,14 8,0 15,-9 15,-20 z m 357,6 c 3,-3 0,-13 -8,-23 -12,-15 -12,-16 2,-11 9,4 22,1 28,-5 8,-8 11,-8 11,1 0,7 5,12 11,12 5,0 8,-4 5,-9 -3,-5 1,-11 9,-15 8,-3 17,0 21,6 5,7 2,8 -6,3 -9,-5 -11,-4 -6,3 9,14 36,16 36,3 0,-6 -5,-13 -11,-17 -19,-11 -49,-87 -49,-125 0,-42 22,-100 44,-119 21,-17 20,-27 -4,-40 -18,-10 -20,-8 -16,14 3,18 1,23 -10,19 -8,-3 -11,-10 -8,-15 4,-6 -2,-7 -17,-3 -20,6 -22,5 -11,-6 16,-17 15,-29 -3,-29 -8,0 -14,3 -14,8 3,18 -2,32 -12,32 -6,0 -8,-9 -4,-22 6,-23 6,-23 -7,-2 -7,12 -19,19 -27,16 -8,-3 -11,0 -7,7 4,6 2,11 -3,11 -10,0 -15,-14 -12,-33 1,-4 -8,-3 -19,3 -23,12 -21,37 1,32 8,-2 11,0 7,3 -4,4 0,21 8,36 32,62 24,140 -19,202 -19,27 -19,29 -1,42 23,17 34,19 34,5 0,-5 -4,-10 -8,-10 -5,0 -9,-6 -9,-14 0,-8 6,-12 14,-9 7,3 10,9 7,14 -3,5 -1,9 5,9 5,0 12,-6 14,-12 3,-7 6,1 6,17 1,23 -2,26 -9,15 -6,-10 -10,-11 -10,-2 0,6 -11,12 -24,12 -13,0 -27,-6 -29,-12 -3,-8 -6,-5 -6,6 -1,16 5,18 50,13 28,-3 53,-8 56,-11 z m -420,-19 c -2,-6 -10,-12 -18,-15 -11,-3 -11,-2 1,7 10,7 11,11 3,11 -7,0 -13,4 -13,10 0,5 7,7 15,3 9,-3 14,-10 12,-16 z m 238,-7 c 14,-5 23,-14 20,-20 -3,-5 0,-7 8,-4 18,6 60,-44 52,-63 -2,-8 -1,-11 5,-8 12,8 24,-59 15,-92 -9,-39 -50,-90 -87,-109 -39,-20 -107,-20 -146,0 -45,23 -84,79 -89,129 -8,67 36,141 97,166 33,13 92,13 125,1 z m 479,-1 c 14,-7 23,-16 19,-22 -3,-6 -1,-7 6,-3 18,12 42,-14 36,-38 -5,-15 -4,-17 3,-7 23,33 47,-76 28,-129 -6,-19 -18,-34 -25,-32 -7,1 -10,-2 -6,-8 4,-6 1,-18 -6,-26 -35,-42 -122,-59 -184,-35 -24,10 -27,14 -15,22 11,8 9,9 -9,4 -19,-6 -23,-4 -18,8 4,12 2,14 -10,10 -13,-5 -15,-2 -10,11 4,9 3,15 -2,12 -12,-8 -31,40 -31,82 0,44 30,108 49,104 7,-1 10,2 6,8 -3,5 9,19 27,30 37,22 103,26 142,9 z M 718,448 c 22,-22 14,-66 -14,-85 -24,-15 -29,-15 -53,-2 -31,17 -39,59 -16,83 19,19 66,21 83,4 z m 66,-14 c 8,-20 8,-54 0,-54 -15,0 -44,22 -44,33 0,14 19,37 31,37 4,0 10,-7 13,-16 z M 610,405 c 0,-7 3,-22 6,-32 4,-13 3,-14 -3,-5 -5,7 -17,10 -26,6 -14,-5 -17,0 -17,30 0,34 2,36 20,26 11,-6 20,-17 20,-25 z m 410,-45 c 0,-5 -7,-10 -15,-10 -8,0 -15,5 -15,10 0,6 7,10 15,10 8,0 15,-4 15,-10 z M 663,328 c 8,-30 3,-33 -33,-18 -32,13 -38,25 -17,33 27,11 45,6 50,-15 z m 152,-21 c -4,-18 -1,-45 5,-61 8,-21 7,-32 -1,-42 -17,-20 -31,-17 -24,5 8,27 -13,36 -36,15 -18,-17 -19,-16 -19,19 0,23 6,40 18,47 12,8 13,13 4,16 -6,3 -10,10 -7,15 4,5 12,3 19,-3 17,-16 8,-51 -11,-44 -8,3 -11,1 -8,-4 11,-18 35,-10 36,13 1,12 2,27 4,32 1,6 3,13 3,18 1,4 7,7 12,7 7,0 9,-13 5,-33 z m 145,-3 c 0,-8 4,-12 10,-9 6,3 7,-1 4,-10 -5,-11 -2,-14 10,-9 10,4 16,1 16,-7 0,-11 3,-11 10,1 8,13 10,12 10,-2 0,-10 -7,-18 -15,-18 -8,0 -15,4 -15,9 0,5 -8,8 -17,7 -10,0 -18,4 -18,11 0,6 -3,15 -7,19 -11,11 -10,24 2,24 6,0 10,-7 10,-16 z m -335,0 c 14,-6 14,-8 -1,-25 -9,-11 -22,-19 -27,-19 -6,0 -2,6 9,14 10,8 15,18 11,22 -4,5 -12,2 -17,-6 -5,-8 -12,-11 -17,-7 -4,5 -1,12 7,17 18,12 15,11 35,4 z m 775,-176 c 0,-17 -30,-7 -31,10 0,14 -2,14 -9,-3 -6,-15 -9,-16 -9,-4 -1,9 2,18 5,22 7,7 44,-14 44,-25 z m 60,12 c 0,-5 -7,-10 -15,-10 -8,0 -15,5 -15,10 0,6 7,10 15,10 8,0 15,-4 15,-10 z"
       id="path8"
       inkscape:connector-curvature="0" />
    <path
       d="m 934,722 c 0,-13 9,-17 41,-17 32,0 41,4 41,17 0,12 -4,14 -10,8 -13,-13 -49,-13 -62,0 -6,6 -10,4 -10,-8 z"
       id="path10"
       inkscape:connector-curvature="0" />
    <path
       d="m 1465,372 c -12,-8 -13,-37 -2,-48 4,-4 7,-2 7,5 0,7 5,9 10,6 6,-3 10,-1 10,4 0,6 -4,11 -10,11 -5,0 -10,5 -10,10 0,6 7,10 15,10 11,0 15,-11 15,-40 0,-40 -14,-52 -36,-30 -7,7 -11,6 -11,-5 0,-8 6,-15 14,-15 7,0 13,-6 13,-12 0,-9 4,-8 10,2 8,13 10,12 10,-2 0,-10 -7,-18 -15,-18 -8,0 -15,4 -15,10 0,5 -7,7 -16,3 -15,-5 -15,-7 0,-15 9,-5 26,-8 38,-6 19,3 22,9 22,65 1,44 -3,64 -12,68 -18,7 -25,6 -37,-3 z"
       id="path12"
       inkscape:connector-curvature="0" />
    <path
       d="m 1217,373 c -27,-7 -49,-57 -37,-87 19,-50 77,-60 116,-20 40,39 20,97 -36,107 -14,3 -33,3 -43,0 z m 43,-13 c 0,-5 -7,-10 -15,-10 -8,0 -15,5 -15,10 0,6 7,10 15,10 8,0 15,-4 15,-10 z m -42,-27 c 0,-21 -2,-23 -10,-9 -5,9 -6,21 -3,26 10,16 13,12 13,-17 z m 58,-17 c -9,-14 -16,-34 -16,-46 0,-11 -7,-20 -15,-20 -8,0 -15,8 -15,18 0,14 2,15 10,2 8,-13 10,-12 10,3 0,9 -4,17 -10,17 -5,0 -10,11 -10,23 0,14 6,24 15,24 8,0 15,-4 15,-9 0,-5 4,-7 10,-3 5,3 6,13 3,23 -5,13 -3,15 7,5 11,-10 10,-17 -4,-37 z m -76,-12 c 0,-8 -4,-12 -10,-9 -5,3 -10,10 -10,16 0,5 5,9 10,9 6,0 10,-7 10,-16 z m 110,6 c 0,-5 -4,-10 -10,-10 -5,0 -10,5 -10,10 0,6 5,10 10,10 6,0 10,-4 10,-10 z m -16,-41 c -10,-16 -23,-9 -21,10 1,15 4,17 14,9 7,-5 10,-14 7,-19 z m -74,1 c 0,-5 -4,-10 -10,-10 -5,0 -10,5 -10,10 0,6 5,10 10,10 6,0 10,-4 10,-10 z"
       id="path14"
       inkscape:connector-curvature="0" />
    <path
       d="m 1675,355 c -30,-30 -31,-54 -4,-89 25,-32 66,-34 97,-6 31,29 29,73 -4,99 -35,27 -59,26 -89,-4 z m 62,-25 c 1,-36 -1,-39 -22,-38 -19,2 -22,5 -14,20 5,10 14,18 19,18 15,0 12,17 -4,23 -10,4 -13,1 -10,-8 5,-12 -1,-13 -36,-5 -11,2 35,30 50,30 11,0 16,-11 17,-40 z m 43,-20 c 0,-34 -25,-16 -26,19 -1,32 0,33 12,16 8,-10 14,-26 14,-35 z m -108,-12 c -9,-9 -12,-7 -12,12 0,19 3,21 12,12 9,-9 9,-15 0,-24 z m 65,-35 c 0,-17 -29,-16 -52,1 -17,12 -16,13 16,12 21,0 36,-6 36,-13 z m 33,13 c 0,-3 -4,-8 -10,-11 -5,-3 -10,-1 -10,4 0,6 5,11 10,11 6,0 10,-2 10,-4 z"
       id="path16"
       inkscape:connector-curvature="0" />
    <path
       d="m 660,427 c 0,-11 4,-15 12,-11 8,5 9,2 5,-9 -7,-18 8,-33 17,-18 3,5 -3,20 -14,32 -17,21 -19,22 -20,6 z"
       id="path18"
       inkscape:connector-curvature="0" />
    <path
       d="m 2250,830 c -12,-8 -11,-10 8,-10 12,0 22,5 22,10 0,13 -11,13 -30,0 z"
       id="path20"
       inkscape:connector-curvature="0" />
    <path
       d="m 677,764 c -17,-17 -6,-55 18,-66 21,-10 28,-8 40,8 16,21 20,38 6,30 -5,-3 -8,2 -7,12 1,18 -43,30 -57,16 z m 45,-29 c 4,-19 1,-24 -13,-22 -10,2 -22,7 -26,12 -5,4 -2,5 5,1 8,-5 12,0 12,13 0,29 17,26 22,-4 z"
       id="path22"
       inkscape:connector-curvature="0" />
    <path
       d="m 870,650 -125,-6 128,-2 c 79,-1 127,2 127,8 0,6 -1,9 -2,8 -2,-1 -59,-5 -128,-8 z"
       id="path24"
       inkscape:connector-curvature="0" />
    <path
       d="m 693,588 c -13,-16 -13,-48 0,-48 5,0 7,6 4,13 -3,8 5,13 22,15 25,1 25,1 7,-13 -11,-8 -17,-18 -13,-21 3,-4 13,1 22,10 9,9 19,16 23,16 3,0 1,-5 -6,-12 -7,-7 -12,-16 -12,-21 0,-5 7,-1 16,7 8,9 19,14 24,11 4,-3 6,4 3,15 -6,24 -19,34 -27,22 -3,-5 -17,-7 -31,-5 -13,3 -22,9 -19,14 8,14 -2,11 -13,-3 z"
       id="path26"
       inkscape:connector-curvature="0" />
    <path
       d="m 987,536 c -6,-16 19,-30 28,-16 4,6 1,10 -5,10 -6,0 -8,5 -5,10 3,6 2,10 -3,10 -6,0 -12,-6 -15,-14 z"
       id="path28"
       inkscape:connector-curvature="0" />
    <path
       d="m 1166,524 c -8,-22 -8,-23 9,-20 19,3 32,16 16,16 -7,0 -9,5 -6,10 3,6 2,10 -3,10 -6,0 -13,-7 -16,-16 z"
       id="path30"
       inkscape:connector-curvature="0" />
    <path
       d="m 1886,525 c -8,-23 -8,-24 12,-21 9,2 17,9 17,16 0,20 -22,23 -29,5 z"
       id="path32"
       inkscape:connector-curvature="0" />
    <path
       d="m 1946,525 c -3,-8 0,-15 6,-15 6,0 9,-3 6,-6 -7,-7 -34,-12 -66,-13 -18,-1 -22,-6 -19,-26 4,-33 10,-37 41,-26 16,7 26,18 26,31 0,11 7,20 15,20 18,0 19,-12 3,-28 -9,-9 -9,-12 0,-12 7,0 17,10 22,23 10,22 10,22 7,-3 -2,-21 2,-25 25,-25 14,1 25,-3 22,-6 -2,-4 0,-10 5,-13 14,-9 21,20 8,34 -10,10 -8,10 8,2 11,-6 30,-21 43,-35 l 23,-24 34,34 c 34,34 50,68 20,43 -12,-10 -15,-10 -15,3 0,8 6,18 13,20 6,3 1,6 -13,6 -20,1 -22,3 -10,11 13,8 13,10 -1,10 -18,0 -30,-21 -35,-60 -3,-25 -3,-25 8,-2 6,12 15,22 20,22 13,0 9,-47 -6,-59 -20,-17 -40,13 -39,60 0,32 -3,39 -19,39 -10,0 -18,-6 -17,-12 4,-32 -1,-38 -25,-28 -14,5 -34,7 -45,5 -12,-2 -21,0 -21,6 0,5 5,9 11,9 8,0 8,5 -1,15 -7,8 -16,15 -20,15 -4,0 -10,-7 -14,-15 z m 144,-51 c 0,-8 -4,-12 -10,-9 -5,3 -10,10 -10,16 0,5 5,9 10,9 6,0 10,-7 10,-16 z m -172,-11 c 16,-16 16,-16 -1,-10 -10,4 -23,7 -28,7 -6,0 -7,5 -4,10 9,14 14,13 33,-7 z m 110,5 c -6,-18 -25,-21 -25,-3 0,8 7,15 15,15 7,0 12,-5 10,-12 z"
       id="path34"
       inkscape:connector-curvature="0" />
    <path
       d="m 2014,529 c -9,-15 13,-36 25,-23 6,5 4,14 -4,21 -10,9 -16,10 -21,2 z"
       id="path36"
       inkscape:connector-curvature="0" />
    <path
       d="m 2196,515 c -10,-27 4,-45 30,-39 59,15 137,-43 150,-111 13,-69 -43,-142 -115,-152 -22,-3 -41,-10 -41,-14 0,-5 -5,-9 -11,-9 -6,0 -9,7 -6,14 4,9 -1,17 -12,21 -10,3 -31,20 -47,38 -24,26 -29,40 -28,79 1,39 -3,51 -27,74 -30,29 -32,17 -5,-34 12,-23 16,-51 14,-92 -1,-32 -4,-57 -6,-56 -1,2 -17,-10 -34,-25 -16,-16 -41,-32 -54,-35 -20,-5 -22,-9 -13,-25 7,-15 6,-19 -6,-19 -8,0 -15,9 -15,20 0,11 -5,20 -11,20 -6,0 -8,-9 -4,-22 6,-22 6,-23 -7,-3 -8,13 -21,20 -33,17 -17,-3 -18,-1 -5,8 13,10 12,11 -3,6 -10,-3 -21,-6 -24,-6 -3,0 1,-7 8,-17 13,-15 12,-15 -9,-4 -29,16 -45,5 -38,-25 4,-16 2,-24 -6,-24 -9,0 -8,-3 2,-10 22,-14 26,-13 37,13 9,19 17,22 52,19 22,-2 41,-8 41,-13 0,-5 -6,-9 -12,-9 -7,0 -5,-5 6,-11 14,-9 20,-8 27,2 4,7 6,16 3,20 -2,4 0,10 5,14 6,3 8,13 4,23 -4,11 0,10 11,-5 9,-12 15,-28 14,-34 -2,-7 5,-15 15,-17 10,-2 17,2 17,12 0,9 -6,16 -12,16 -7,0 -1,8 12,17 14,9 28,21 32,27 4,6 10,7 14,4 3,-4 -1,-14 -10,-23 -18,-18 -13,-35 10,-35 13,0 18,20 15,65 -1,13 4,8 13,-13 8,-17 22,-32 31,-32 9,0 14,4 11,8 -2,4 -1,14 4,22 5,8 4,23 -1,34 -9,19 -9,19 3,4 7,-9 18,-25 25,-35 10,-15 13,-16 22,-3 5,8 8,17 5,21 -2,4 3,10 12,13 8,3 13,2 11,-2 -6,-9 19,-33 27,-25 3,4 6,15 6,25 0,21 11,23 28,6 14,-14 20,-9 25,23 3,17 10,24 25,23 18,-1 21,3 16,23 -5,19 -2,25 15,30 25,6 27,16 6,33 -14,12 -14,15 0,30 18,20 19,30 3,30 -7,0 -19,4 -27,9 -12,8 -13,12 -1,25 16,20 9,29 -23,29 -13,0 -24,5 -24,13 0,8 5,14 11,14 7,0 7,3 0,10 -8,8 -19,8 -38,0 -17,-6 -25,-6 -21,0 3,6 1,10 -5,10 -6,0 -8,5 -5,10 9,15 -2,12 -30,-6 -22,-15 -25,-15 -25,-1 0,22 -17,30 -24,12 z m -76,-296 c -11,-21 -30,-43 -41,-50 -15,-8 -19,-8 -15,0 4,6 3,11 -2,11 -5,0 -12,-9 -15,-21 -4,-13 -10,-18 -17,-14 -9,6 -9,10 1,16 8,5 10,9 5,9 -6,0 -1,6 9,14 11,8 26,11 34,8 10,-4 13,-1 8,12 -4,10 -3,15 3,11 11,-7 33,32 25,45 -3,5 1,7 9,4 13,-5 13,-11 -4,-45 z m 46,-17 c 1,-20 -3,-32 -11,-32 -17,0 -27,28 -19,52 9,29 28,16 30,-20 z m -288,-74 c -5,-15 -23,-11 -26,6 -2,11 2,14 13,10 9,-4 14,-11 13,-16 z m 62,12 c 0,-5 -7,-10 -15,-10 -8,0 -15,5 -15,10 0,6 7,10 15,10 8,0 15,-4 15,-10 z"
       id="path38"
       inkscape:connector-curvature="0" />
    <path
       d="m 536,457 c 3,-10 9,-15 12,-12 3,3 0,11 -7,18 -10,9 -11,8 -5,-6 z"
       id="path40"
       inkscape:connector-curvature="0" />
    <path
       d="m 2184,432 c -71,-57 -54,-164 30,-192 42,-13 91,2 82,26 -3,9 -6,18 -6,20 0,2 -4,4 -9,4 -5,0 -7,-9 -4,-20 5,-18 0,-20 -36,-20 -39,0 -41,1 -31,20 13,24 2,27 -15,3 -11,-15 -14,-14 -29,15 -20,40 -20,49 2,55 16,4 16,5 0,6 -24,1 -23,24 3,52 14,17 22,20 25,12 9,-21 23,-15 17,7 -4,17 0,20 24,20 62,0 135,-80 86,-93 -17,-4 -17,-5 0,-6 14,-1 17,-6 12,-23 -4,-13 -11,-27 -16,-32 -5,-6 -9,-15 -9,-20 1,-6 10,0 20,13 35,41 23,113 -24,153 -27,23 -94,23 -122,0 z"
       id="path42"
       inkscape:connector-curvature="0" />
    <path
       d="m 876,411 c -19,-21 -21,-35 -3,-25 7,4 9,3 4,-2 -5,-5 -13,-10 -18,-10 -5,-1 -13,-2 -17,-3 -14,-2 4,-127 22,-152 9,-13 16,-18 16,-10 0,8 2,12 5,9 9,-8 -6,-38 -16,-32 -21,13 -7,-12 19,-33 l 27,-22 -25,5 c -17,4 -21,3 -12,-4 8,-5 13,-12 13,-16 -3,-17 0,-20 8,-7 7,12 12,11 30,-1 11,-8 18,-18 14,-21 -3,-4 -1,-7 5,-7 6,0 19,16 28,35 16,34 32,50 20,20 -3,-8 0,-15 6,-15 7,0 7,-4 -1,-13 -12,-15 -5,-27 17,-27 9,0 12,6 8,16 -3,8 -2,12 4,9 6,-3 10,-2 10,2 0,5 14,14 30,20 29,11 30,10 24,-9 -4,-14 -3,-18 6,-13 6,4 18,-1 25,-11 13,-17 16,-17 25,-4 14,21 12,30 -5,30 -8,0 -15,6 -15,14 0,22 -17,28 -40,16 -13,-7 -20,-7 -20,0 0,5 6,10 13,10 8,0 7,4 -3,10 -18,12 -33,13 -26,2 3,-5 -15,-8 -39,-7 -37,2 -43,0 -40,-16 2,-11 -1,-19 -7,-19 -5,0 -8,6 -5,13 7,17 -1,28 -36,51 -16,9 -37,35 -46,57 -10,21 -21,36 -25,32 -3,-4 -5,4 -4,18 2,13 5,26 8,29 3,3 15,24 27,47 23,45 17,65 -11,34 z m -1,-171 c 3,-5 1,-10 -4,-10 -6,0 -11,5 -11,10 0,6 2,10 4,10 3,0 8,-4 11,-10 z m 58,-77 c -3,-7 -8,-13 -12,-13 -14,0 -29,23 -24,36 4,10 9,10 23,2 10,-6 16,-18 13,-25 z m 15,-28 c 0,-24 -8,-31 -21,-19 -4,5 13,44 19,44 1,0 2,-11 2,-25 z m 90,7 c 2,-7 -3,-12 -12,-12 -9,0 -16,7 -16,16 0,17 22,14 28,-4 z m 85,-12 c 3,-11 1,-18 -4,-14 -5,3 -9,12 -9,20 0,20 7,17 13,-6 z"
       id="path44"
       inkscape:connector-curvature="0" />
    <path
       d="m 495,402 c -3,-8 -1,-20 5,-26 5,-5 10,-23 10,-39 0,-32 16,-28 30,9 8,19 5,28 -15,48 -20,20 -25,21 -30,8 z m 45,-36 c 0,-3 -4,-8 -10,-11 -5,-3 -10,-1 -10,4 0,6 5,11 10,11 6,0 10,-2 10,-4 z"
       id="path46"
       inkscape:connector-curvature="0" />
    <path
       d="m 2275,410 c -3,-5 -1,-10 4,-10 6,0 11,5 11,10 0,6 -2,10 -4,10 -3,0 -8,-4 -11,-10 z"
       id="path48"
       inkscape:connector-curvature="0" />
    <path
       d="m 2241,392 c -1,-7 -5,-11 -11,-7 -5,3 -16,-5 -25,-19 -13,-19 -14,-29 -6,-45 31,-56 114,-19 95,42 -6,18 -8,18 -18,6 -14,-17 -56,-20 -56,-3 0,7 8,10 19,7 10,-3 22,1 26,8 5,7 4,10 -3,5 -5,-3 -13,0 -15,6 -4,10 -6,10 -6,0 z m 40,-60 c -6,-2 -8,-9 -5,-14 4,-7 2,-8 -4,-4 -7,4 -12,3 -12,-2 0,-5 -7,-9 -15,-9 -8,0 -15,4 -15,9 0,5 -4,6 -10,3 -6,-4 -7,1 -3,11 4,12 3,15 -5,10 -7,-4 -12,-3 -12,2 0,5 14,9 30,10 17,0 28,-4 24,-9 -3,-5 -11,-6 -17,-3 -7,4 -6,1 1,-7 12,-12 16,-10 30,10 11,16 18,19 21,10 2,-7 -1,-15 -8,-17 z"
       id="path50"
       inkscape:connector-curvature="0" />
    <path
       d="m 1930,370 c -12,-7 -12,-10 -1,-10 7,0 11,-6 8,-15 -8,-18 5,-26 23,-15 13,8 12,12 -5,24 -20,15 -20,15 1,16 18,0 20,-6 20,-60 0,-49 -3,-60 -16,-60 -9,0 -17,6 -17,14 0,8 6,12 14,9 20,-8 16,11 -6,24 -17,11 -19,9 -16,-12 1,-14 -2,-25 -7,-25 -5,0 -6,-4 -3,-10 11,-17 64,-11 85,10 53,53 -18,150 -80,110 z m 74,-40 c -6,-6 -10,-2 -11,12 -2,16 1,18 10,9 7,-7 8,-14 1,-21 z m 13,-32 c -3,-8 -6,-5 -6,6 -1,11 2,17 5,13 3,-3 4,-12 1,-19 z m -7,-22 c 0,-3 -4,-8 -10,-11 -5,-3 -10,-1 -10,4 0,6 5,11 10,11 6,0 10,-2 10,-4 z"
       id="path52"
       inkscape:connector-curvature="0" />
    <path
       d="m 1602,135 c 1,-11 -1,-25 -5,-31 -4,-7 1,-14 13,-17 11,-3 20,-1 20,4 0,5 12,4 26,-2 29,-10 40,-7 30,10 -4,6 -14,7 -22,4 -9,-3 -20,0 -25,8 -7,12 -9,12 -10,-1 0,-8 -7,-1 -15,15 -9,20 -13,23 -12,10 z"
       id="path54"
       inkscape:connector-curvature="0" />
    <path
       d="m 310,114 c 0,-8 5,-14 11,-14 5,0 7,5 3,12 -5,8 -3,8 7,2 16,-10 129,-14 129,-4 0,3 9,6 20,6 11,0 20,-3 20,-7 0,-3 18,-6 40,-7 27,-1 40,2 40,11 0,11 -30,14 -135,14 -108,1 -135,-2 -135,-13 z"
       id="path56"
       inkscape:connector-curvature="0" />
    <path
       d="m 596,116 c 3,-9 13,-14 22,-13 27,4 25,22 -3,25 -19,3 -23,0 -19,-12 z"
       id="path58"
       inkscape:connector-curvature="0" />
    <path
       d="m 653,115 c 0,-8 9,-15 20,-15 10,0 17,5 15,13 -7,18 -35,20 -35,2 z"
       id="path60"
       inkscape:connector-curvature="0" />
    <path
       d="m 700,116 c 0,-15 16,-16 39,-2 10,6 12,5 7,-2 -4,-7 -1,-12 8,-12 9,0 16,7 16,15 0,10 -11,15 -35,15 -23,0 -35,-5 -35,-14 z"
       id="path62"
       inkscape:connector-curvature="0" />
    <path
       d="m 1065,110 c -4,-6 -2,-17 4,-23 15,-15 25,-2 13,19 -7,12 -11,13 -17,4 z"
       id="path64"
       inkscape:connector-curvature="0" />
    <path
       d="m 1186,102 c -3,-6 -1,-14 5,-17 15,-10 25,3 12,16 -7,7 -13,7 -17,1 z"
       id="path66"
       inkscape:connector-curvature="0" />
    <path
       d="m 1420,100 c -8,-5 -6,-9 5,-14 22,-8 22,-8 28,7 5,14 -15,18 -33,7 z"
       id="path68"
       inkscape:connector-curvature="0" />
    <path
       d="m 1900,100 c -8,-5 -6,-9 5,-14 18,-6 35,0 35,13 0,10 -25,10 -40,1 z"
       id="path70"
       inkscape:connector-curvature="0" />
  </g>
  <path
     d="m 144.40745,16.579542 0,12.59191 m -6.29596,-6.29596 12.59191,0"
     id="path4"
     inkscape:connector-curvature="0"
     style="stroke:#000000;stroke-width:5.8762269" />
  <path
     d="m 144.40745,16.579542 0,12.59191 m -6.29596,-6.29596 12.59191,0"
     id="path6"
     inkscape:connector-curvature="0"
     style="stroke:#ffffff;stroke-width:5.45649624" />
  <path
     d="m 144.40745,16.579542 0,12.59191 m -6.29596,-6.29596 12.59191,0"
     id="path8-6"
     inkscape:connector-curvature="0"
     style="stroke:#000000;stroke-width:3.56770921" />
</svg>
